<svg xmlns="http://www.w3.org/2000/svg" width="193" height="35" viewBox="0 0 193 35">
    <g fill="none" fill-rule="nonzero">
        <path fill="#FFED8F" d="M31 14.239H14.153L14.188 18 0 8.974 14.188 0l-.035 3.785H31z"/>
        <path fill="#331139" d="M0 20.761h16.844L16.81 17 31 26.026 16.809 35l.035-3.785H0z"/>
        <g fill="#333">
            <path d="M41.297 17.64h-2.118v7.695h-2.297V8.208h2.297v7.553h1.8l6.095-7.553h2.861l-6.658 8.307 7.15 8.82h-2.813zM63.133 19.114c0 1.938-.45 3.5-1.356 4.684-.9 1.184-2.124 1.773-3.665 1.773-1.572 0-2.814-.489-3.714-1.473v6.128h-2.213V12.603h2.021l.108 1.414c.9-1.096 2.154-1.65 3.762-1.65 1.56 0 2.79.578 3.695 1.733.906 1.154 1.362 2.757 1.362 4.813v.2zm-2.214-.248c0-1.437-.312-2.569-.936-3.4-.624-.83-1.475-1.249-2.561-1.249-1.344 0-2.346.584-3.018 1.756v6.08c.66 1.161 1.68 1.745 3.042 1.745 1.062 0 1.907-.413 2.531-1.244.63-.83.942-2.056.942-3.688zM74.333 12.603h2.213V25.33h-2.213v-9.28l-5.975 9.28h-2.214V12.603h2.214v9.292zM90.71 25.335h-2.22V14.406h-5.963v10.93h-2.226V12.608H90.71zM103.895 14.37h-4.35v10.965h-2.213V14.371h-4.265v-1.768h10.828zM105.46 18.854c0-1.249.253-2.368.75-3.364.498-.996 1.194-1.762 2.082-2.304.888-.542 1.908-.813 3.047-.813 1.764 0 3.192.601 4.284 1.797 1.091 1.202 1.637 2.799 1.637 4.79v.154c0 1.237-.24 2.35-.726 3.334-.485.984-1.175 1.75-2.07 2.298-.899.548-1.93.825-3.095.825-1.757 0-3.179-.6-4.27-1.797-1.093-1.202-1.638-2.787-1.638-4.766v-.154zm2.232.26c0 1.414.336 2.545 1.002 3.4.666.854 1.56 1.284 2.675 1.284 1.128 0 2.022-.436 2.682-1.302.66-.867.996-2.08.996-3.642 0-1.396-.336-2.527-1.014-3.393-.672-.866-1.572-1.302-2.688-1.302-1.091 0-1.973.43-2.645 1.284-.672.854-1.008 2.074-1.008 3.67zM133.8 17.322c0 1.68-.289 3.14-.865 4.396-.576 1.249-1.391 2.203-2.441 2.863-1.056.66-2.286.99-3.69.99-1.373 0-2.591-.33-3.653-.996-1.062-.66-1.883-1.608-2.471-2.834-.588-1.225-.888-2.651-.906-4.265v-1.238c0-1.65.294-3.099.876-4.365.582-1.261 1.41-2.228 2.471-2.9 1.068-.67 2.286-1.007 3.66-1.007 1.397 0 2.627.33 3.695.996 1.068.66 1.883 1.626 2.46 2.881.575 1.255.863 2.722.863 4.395v1.084zm-2.286-1.107c0-2.033-.414-3.588-1.248-4.678-.828-1.084-1.992-1.632-3.486-1.632-1.451 0-2.597.542-3.43 1.632-.835 1.084-1.267 2.592-1.29 4.525v1.26c0 1.968.42 3.518 1.265 4.643.84 1.126 2.004 1.691 3.48 1.691 1.487 0 2.633-.53 3.449-1.596.816-1.061 1.236-2.587 1.26-4.573v-1.272zM142.593 13.334c1.632 0 2.934.536 3.912 1.608.977 1.072 1.47 2.48 1.47 4.23v.2c0 1.203-.235 2.275-.709 3.218-.473.942-1.145 1.679-2.027 2.197-.882.525-1.896.784-3.048.784-1.74 0-3.143-.571-4.205-1.714-1.062-1.143-1.595-2.675-1.595-4.596V18.2c0-2.676.503-4.802 1.517-6.376 1.008-1.579 2.502-2.539 4.475-2.88 1.116-.195 1.872-.437 2.262-.72.39-.282.588-.671.588-1.166h1.818c0 .978-.228 1.744-.678 2.292-.45.548-1.17.937-2.16 1.166l-1.656.366c-1.32.306-2.303.819-2.963 1.55-.66.724-1.086 1.69-1.29 2.898 1.176-1.332 2.604-1.997 4.29-1.997zm-.432 1.79c-1.085 0-1.95.36-2.585 1.079-.642.719-.96 1.715-.96 2.981v.189c0 1.367.324 2.445.966 3.24.642.796 1.512 1.196 2.603 1.196 1.104 0 1.974-.4 2.61-1.202.636-.8.96-1.967.96-3.505 0-1.202-.324-2.162-.966-2.887-.642-.73-1.518-1.09-2.628-1.09zM157.926 22.454l4.41-9.845h2.765v12.726h-2.214v-9.262l-4.193 9.256h-1.535l-4.278-9.456v9.456h-2.213V12.603h2.873zM174.033 25.571c-1.757 0-3.185-.566-4.289-1.703-1.104-1.13-1.656-2.651-1.656-4.548v-.4c0-1.262.246-2.393.738-3.383.492-.99 1.176-1.767 2.058-2.327a5.248 5.248 0 0 1 2.867-.843c1.686 0 2.994.548 3.93 1.638.935 1.09 1.403 2.652 1.403 4.684v.908h-8.782c.03 1.255.408 2.268 1.122 3.04.714.772 1.625 1.16 2.723 1.16.78 0 1.446-.158 1.986-.47a4.92 4.92 0 0 0 1.428-1.25l1.355 1.037c-1.08 1.638-2.711 2.457-4.883 2.457zm-.276-11.412c-.893 0-1.643.318-2.25.96-.605.642-.983 1.538-1.127 2.687h6.49v-.165c-.065-1.108-.365-1.962-.911-2.57-.54-.606-1.272-.912-2.202-.912zM192.24 25.335h-2.214v-5.432h-5.95v5.432h-2.226V12.61h2.225v5.515h5.951v-5.515h2.214z"/>
            <g>
                <path d="M41.297 17.635h-2.118v7.694h-2.297V8.202h2.297v7.553h1.8l6.095-7.553h2.861l-6.658 8.307 7.15 8.82h-2.813zM63.133 19.108c0 1.938-.45 3.5-1.356 4.684-.9 1.184-2.124 1.773-3.665 1.773-1.572 0-2.814-.489-3.714-1.473v6.128h-2.213V12.603h2.021l.108 1.414c.9-1.096 2.154-1.65 3.762-1.65 1.56 0 2.79.578 3.695 1.733.906 1.154 1.362 2.757 1.362 4.813v.195zm-2.22-.248c0-1.437-.312-2.569-.936-3.4-.624-.83-1.475-1.248-2.561-1.248-1.344 0-2.346.583-3.018 1.755v6.08c.66 1.161 1.68 1.745 3.042 1.745 1.062 0 1.907-.413 2.531-1.243.63-.831.942-2.057.942-3.689zM74.327 12.603h2.213V25.33h-2.213v-9.28l-5.975 9.28h-2.214V12.603h2.214v9.292zM90.703 25.33H88.49V14.4h-5.963v10.93h-2.226V12.602H90.71V25.33zM103.889 14.365h-4.35v10.964h-2.213V14.365h-4.265v-1.768h10.828zM105.46 18.848c0-1.249.253-2.368.75-3.364.498-.995 1.194-1.761 2.082-2.303.888-.543 1.908-.814 3.047-.814 1.764 0 3.192.601 4.284 1.797 1.091 1.202 1.637 2.8 1.637 4.79v.154c0 1.237-.24 2.35-.726 3.334-.485.984-1.175 1.75-2.07 2.298-.899.548-1.93.825-3.095.825-1.757 0-3.179-.6-4.27-1.797-1.093-1.202-1.638-2.787-1.638-4.766v-.154zm2.226.26c0 1.414.336 2.545 1.002 3.4.666.854 1.56 1.284 2.675 1.284 1.128 0 2.022-.436 2.682-1.302.66-.866.996-2.08.996-3.642 0-1.396-.336-2.527-1.014-3.393-.672-.866-1.572-1.302-2.688-1.302-1.091 0-1.973.43-2.645 1.284-.672.854-1.008 2.08-1.008 3.67zM133.8 17.317c0 1.679-.289 3.14-.865 4.395-.576 1.249-1.391 2.203-2.441 2.863-1.056.66-2.286.99-3.69.99-1.373 0-2.591-.33-3.653-.996-1.062-.66-1.883-1.608-2.471-2.834-.588-1.225-.888-2.65-.906-4.265v-1.238c0-1.65.294-3.099.876-4.365.582-1.261 1.41-2.227 2.471-2.9 1.068-.67 2.286-1.007 3.66-1.007 1.397 0 2.627.33 3.695.996 1.068.66 1.883 1.626 2.46 2.881.575 1.255.863 2.722.863 4.395v1.085zm-2.286-1.102c0-2.033-.414-3.588-1.248-4.678-.828-1.084-1.992-1.632-3.486-1.632-1.451 0-2.597.542-3.43 1.632-.835 1.084-1.267 2.592-1.29 4.525v1.26c0 1.968.42 3.518 1.265 4.643.84 1.126 2.004 1.691 3.48 1.691 1.487 0 2.633-.53 3.449-1.596.816-1.061 1.236-2.587 1.26-4.573v-1.272zM142.587 13.328c1.632 0 2.934.536 3.912 1.608.977 1.073 1.47 2.48 1.47 4.23v.201c0 1.202-.235 2.274-.709 3.217-.473.943-1.145 1.68-2.027 2.198-.882.524-1.896.783-3.048.783-1.74 0-3.143-.571-4.205-1.714-1.062-1.143-1.595-2.675-1.595-4.596v-1.06c0-2.675.503-4.802 1.517-6.375 1.008-1.58 2.502-2.54 4.475-2.882 1.116-.194 1.872-.436 2.262-.718.39-.283.588-.672.588-1.167h1.818c0 .978-.228 1.744-.678 2.292-.45.548-1.17.937-2.16 1.167l-1.656.365c-1.32.306-2.303.819-2.963 1.55-.66.724-1.086 1.69-1.29 2.898 1.176-1.326 2.61-1.997 4.29-1.997zm-.426 1.79c-1.085 0-1.95.36-2.585 1.08-.642.718-.96 1.714-.96 2.98v.189c0 1.367.324 2.445.966 3.24.642.796 1.512 1.196 2.603 1.196 1.104 0 1.974-.4 2.61-1.201.636-.802.96-1.968.96-3.506 0-1.202-.324-2.162-.966-2.887-.642-.73-1.518-1.09-2.628-1.09zM157.92 22.448l4.41-9.845h2.765V25.33h-2.214v-9.256l-4.193 9.256h-1.535l-4.278-9.456v9.456h-2.213V12.603h2.873zM174.033 25.565c-1.757 0-3.185-.565-4.289-1.703-1.104-1.13-1.656-2.65-1.656-4.548v-.4c0-1.262.246-2.393.738-3.383.492-.99 1.176-1.767 2.058-2.327a5.248 5.248 0 0 1 2.867-.842c1.686 0 2.994.548 3.93 1.637.935 1.09 1.403 2.652 1.403 4.684v.908h-8.782c.03 1.255.408 2.268 1.122 3.04.714.772 1.625 1.16 2.723 1.16.78 0 1.446-.158 1.986-.47a4.92 4.92 0 0 0 1.428-1.25l1.355 1.037c-1.085 1.638-2.711 2.457-4.883 2.457zm-.276-11.412c-.893 0-1.643.318-2.25.96-.605.642-.983 1.538-1.127 2.687h6.49v-.165c-.065-1.108-.365-1.962-.911-2.57-.54-.606-1.278-.912-2.202-.912zM192.24 25.33h-2.214v-5.433h-5.95v5.432h-2.226V12.603h2.225v5.515h5.951v-5.515h2.214z"/>
            </g>
            <g>
                <path d="M40.415 17.635h-2.117v7.694H36V8.202h2.298v7.553h1.8l6.094-7.553h2.861l-6.658 8.307 7.15 8.82h-2.813zM62.25 19.108c0 1.938-.449 3.5-1.355 4.684-.9 1.184-2.123 1.773-3.665 1.773-1.572 0-2.814-.489-3.713-1.473v6.128h-2.214V12.597h2.022l.108 1.414c.9-1.096 2.153-1.65 3.76-1.65 1.56 0 2.79.578 3.696 1.733.906 1.155 1.362 2.757 1.362 4.813v.2zm-2.219-.248c0-1.437-.312-2.569-.935-3.4-.624-.83-1.476-1.248-2.562-1.248-1.344 0-2.346.583-3.017 1.755v6.08c.66 1.161 1.68 1.745 3.041 1.745 1.062 0 1.908-.413 2.532-1.243.63-.831.941-2.057.941-3.689zM73.45 12.597h2.214v12.727h-2.213v-9.28l-5.975 9.28h-2.214V12.597h2.214v9.292zM89.822 25.33h-2.214V14.4h-5.963v10.93H79.42V12.596h10.408V25.33zM103.007 14.365h-4.35v10.964h-2.213V14.365H92.18v-1.768h10.828zM104.579 18.848c0-1.249.252-2.368.75-3.364.497-.995 1.193-1.761 2.081-2.303.888-.543 1.908-.814 3.048-.814 1.763 0 3.191.601 4.283 1.797 1.092 1.202 1.637 2.8 1.637 4.79v.154c0 1.237-.24 2.35-.725 3.334-.486.984-1.176 1.75-2.07 2.298-.9.548-1.932.825-3.095.825-1.758 0-3.18-.6-4.272-1.797-1.091-1.202-1.637-2.787-1.637-4.766v-.154zm2.225.26c0 1.414.336 2.545 1.002 3.4.666.854 1.56 1.284 2.676 1.284 1.127 0 2.021-.436 2.681-1.302.66-.866.996-2.08.996-3.642 0-1.396-.336-2.527-1.014-3.393-.672-.866-1.572-1.302-2.687-1.302-1.092 0-1.974.43-2.646 1.284-.672.854-1.008 2.074-1.008 3.67zM132.917 17.317c0 1.679-.288 3.14-.864 4.395-.575 1.249-1.391 2.203-2.441 2.863-1.056.66-2.286.99-3.69.99-1.373 0-2.59-.33-3.653-.996-1.061-.66-1.883-1.608-2.471-2.834-.588-1.225-.888-2.65-.906-4.265v-1.238c0-1.65.294-3.099.876-4.365.582-1.261 1.41-2.227 2.471-2.9 1.068-.67 2.286-1.007 3.66-1.007 1.397 0 2.627.33 3.695.996 1.068.66 1.884 1.626 2.46 2.881.575 1.255.863 2.722.863 4.395v1.085zm-2.285-1.108c0-2.033-.414-3.588-1.248-4.678-.828-1.084-1.992-1.632-3.485-1.632-1.452 0-2.598.542-3.432 1.632-.834 1.084-1.265 2.592-1.29 4.525v1.26c0 1.968.42 3.518 1.266 4.643.84 1.126 2.004 1.691 3.48 1.691 1.487 0 2.633-.53 3.449-1.596.816-1.06 1.236-2.587 1.26-4.572v-1.273zM141.712 13.328c1.631 0 2.933.536 3.91 1.608.979 1.073 1.47 2.48 1.47 4.23v.201c0 1.202-.233 2.274-.707 3.217-.474.943-1.146 1.68-2.028 2.198-.882.524-1.896.783-3.047.783-1.74 0-3.144-.571-4.206-1.714-1.061-1.143-1.595-2.675-1.595-4.596v-1.06c0-2.675.504-4.802 1.517-6.375 1.008-1.58 2.502-2.54 4.476-2.882 1.115-.194 1.871-.436 2.261-.718.39-.283.588-.672.588-1.167h1.818c0 .978-.228 1.744-.678 2.292-.45.548-1.17.937-2.16 1.167l-1.655.365c-1.32.306-2.304.819-2.964 1.55-.66.724-1.086 1.69-1.29 2.898 1.17-1.331 2.604-1.997 4.29-1.997zm-.432 1.79c-1.086 0-1.95.36-2.586 1.08-.642.718-.96 1.714-.96 2.98v.189c0 1.367.324 2.445.966 3.24.642.796 1.512 1.196 2.604 1.196 1.103 0 1.973-.4 2.61-1.201.635-.802.959-1.968.959-3.506 0-1.202-.324-2.162-.966-2.887-.642-.73-1.518-1.09-2.627-1.09zM157.039 22.448l4.409-9.845h2.765V25.33H162v-9.261l-4.194 9.256h-1.535l-4.277-9.457v9.457h-2.214V12.597h2.873zM173.151 25.565c-1.757 0-3.185-.565-4.289-1.703-1.103-1.13-1.655-2.65-1.655-4.548v-.4c0-1.262.246-2.393.737-3.383.492-.99 1.176-1.767 2.058-2.327a5.248 5.248 0 0 1 2.868-.842c1.685 0 2.993.548 3.929 1.637.936 1.09 1.403 2.652 1.403 4.684v.908h-8.782c.03 1.255.408 2.268 1.122 3.04.714.772 1.626 1.16 2.723 1.16.78 0 1.446-.158 1.986-.47a4.92 4.92 0 0 0 1.428-1.25l1.356 1.037c-1.086 1.638-2.712 2.457-4.884 2.457zm-.275-11.412c-.894 0-1.644.318-2.25.96-.606.642-.984 1.538-1.128 2.687h6.49v-.165c-.065-1.108-.365-1.962-.91-2.57-.54-.606-1.279-.912-2.202-.912zM191.358 25.33h-2.214v-5.433h-5.95v5.432h-2.226V12.597h2.226v5.515h5.95v-5.515h2.214z"/>
            </g>
        </g>
    </g>
</svg>
